<?xml version="1.0" encoding="UTF-8"?>
<svg version="1.1" xmlns="http://www.w3.org/2000/svg" width="512" height="512">
<path d="M0 0 C3.25495147 2.50380883 4.73290565 4.59775468 5.5 8.625 C4.20328264 17.37784218 -6.72342477 24.84271063 -12.86475563 30.93992043 C-14.67876579 32.74102218 -16.48950627 34.54535641 -18.29948425 36.35050964 C-22.13433269 40.1740135 -25.97313209 43.9935351 -29.8125 47.8125 C-34.28176008 52.25812791 -38.74936913 56.70538981 -43.21280479 61.15686607 C-44.99561335 62.93320021 -46.7814078 64.70649479 -48.56733704 66.47969055 C-49.65677353 67.56549569 -50.74607053 68.65144081 -51.83520508 69.73754883 C-52.57935921 70.47395348 -52.57935921 70.47395348 -53.33854675 71.22523499 C-57.51732192 75.34868906 -57.51732192 75.34868906 -59.5 80.75 C-58.78902817 85.37131687 -56.22196383 87.75885781 -53 91 C-48.67782769 89.35121022 -45.85022754 86.05728153 -42.70605469 82.80615234 C-42.08433884 82.1718782 -41.46262299 81.53760406 -40.82206726 80.8841095 C-39.47396378 79.50833407 -38.12797676 78.13048227 -36.78386688 76.7508049 C-34.65427204 74.56789384 -32.51597867 72.39388704 -30.37457275 70.2225647 C-24.28691573 64.04943698 -18.20445717 57.87151962 -12.15478516 51.66113281 C-8.45216902 47.86145174 -4.73029166 44.08159932 -0.9950943 40.3139534 C0.42360068 38.87546542 1.83495221 37.42969622 3.23868561 35.97660446 C5.20382349 33.94392707 7.19256388 31.93746122 9.18847656 29.93505859 C9.76122818 29.33040268 10.3339798 28.72574677 10.92408752 28.10276794 C13.92622902 25.14470674 15.93552111 23.63181526 20.23822021 23.50405884 C24 24 24 24 27 26 C29.01486094 29.02229141 29.98700209 31.12331536 29.72386169 34.79824829 C26.62057634 44.23743243 13.42980677 53.69799995 6.43359375 60.6640625 C5.14586249 61.9499241 3.85835523 63.23601005 2.57106018 64.52230835 C-0.78526463 67.8748511 -4.14458348 71.22437749 -7.50457764 74.57324219 C-10.94565327 78.00401 -14.38382969 81.4376807 -17.82226562 84.87109375 C-24.54537447 91.58354149 -31.27165621 98.2927999 -38 105 C-36.824375 106.4540625 -36.824375 106.4540625 -35.625 107.9375 C-35.18414062 108.48277344 -34.74328125 109.02804688 -34.2890625 109.58984375 C-32.31663026 111.74756507 -31.08755369 111.99092273 -28.16125488 112.29431152 C-24.28119141 111.93307922 -23.18895204 110.97575857 -20.41992188 108.29101562 C-19.55616943 107.46448486 -18.69241699 106.6379541 -17.80249023 105.78637695 C-16.87766846 104.86687256 -15.95284668 103.94736816 -15 103 C-14.01605144 102.03504841 -13.03174913 101.07045743 -12.04711914 100.10620117 C-9.34761068 97.44820606 -6.67214484 94.76711563 -4.00325012 92.07841492 C-2.24009784 90.30229518 -0.47366143 88.52949775 1.2935791 86.75744629 C5.031912 83.00780593 8.76623151 79.25418472 12.5 75.5 C16.85810495 71.11825957 21.21785779 66.73818407 25.58180237 62.36225891 C27.32217546 60.61540488 29.05951417 58.86557093 30.79675293 57.11560059 C31.85589161 56.0528322 32.91516936 54.99020238 33.97460938 53.92773438 C34.8993103 52.99779663 35.82401123 52.06785889 36.7767334 51.10974121 C40.12153179 47.93573635 42.39872287 47.64705264 47.02734375 47.72265625 C49 48 49 48 51.4375 49.625 C53.3861606 52.58696412 53.92895147 54.44757366 54 58 C51.98451056 62.99567825 48.96345767 66.46665091 45.18676758 70.20141602 C44.60421204 70.78922852 44.02165649 71.37704102 43.42144775 71.98266602 C41.5032602 73.91400188 39.57437177 75.8342195 37.64453125 77.75390625 C36.29991031 79.10054994 34.95573481 80.44763855 33.61198425 81.79515076 C30.7965493 84.61500255 27.9757763 87.42937339 25.15112305 90.23999023 C21.54432576 93.8297293 17.95112119 97.43272456 14.36185169 101.03997898 C11.58849548 103.8242183 8.80798057 106.60122027 6.02530479 109.3761425 C4.69833293 110.70112316 3.37355814 112.02830819 2.05109596 113.35778999 C0.1946637 115.22190752 -1.67123361 117.07602918 -3.53979492 118.92797852 C-4.34517448 119.74246712 -4.34517448 119.74246712 -5.16682434 120.57341003 C-11.97515911 127.27096941 -18.26312656 131.14939943 -27.9375 131.125 C-28.95714844 131.12757813 -29.97679687 131.13015625 -31.02734375 131.1328125 C-34 131 -34 131 -36.39195538 130.24800587 C-39.09497822 129.71468075 -39.09497822 129.71468075 -41.30191517 131.53010845 C-42.09373534 132.31187356 -42.88555552 133.09363867 -43.70137024 133.89909363 C-45.07477318 135.23411171 -45.07477318 135.23411171 -46.47592163 136.59609985 C-47.47816931 137.60044475 -48.48008067 138.60512537 -49.48168945 139.61010742 C-50.54526106 140.6557292 -51.61005552 141.7001084 -52.67597961 142.74333191 C-55.57053539 145.58480423 -58.44527472 148.44555624 -61.31531167 151.31176925 C-63.11021806 153.10241284 -64.9093275 154.88871664 -66.71004295 156.67351723 C-72.99522332 162.90314978 -79.26466783 169.14813444 -85.51977539 175.40795898 C-91.34517265 181.23695607 -97.20313583 187.03171641 -103.07755119 192.8112728 C-108.12249136 197.77763783 -113.14390228 202.76698776 -118.14779252 207.77470857 C-121.13544058 210.7638839 -124.13158597 213.74307953 -127.15166664 216.69951439 C-129.99494316 219.48449494 -132.80769567 222.2971122 -135.60011101 225.13305855 C-136.62652493 226.16572401 -137.66316455 227.1883466 -138.71074677 228.19953156 C-143.94562312 233.26420244 -147.57862077 236.97861117 -147.75187683 244.50410461 C-147.49334995 248.48543512 -147.10944141 249.83914839 -144.8046875 253.2265625 C-143.83789062 254.01804687 -142.87109375 254.80953125 -141.875 255.625 C-135.60630186 261.10684068 -129.4666881 267.94202948 -128.796875 276.63671875 C-128.65274972 286.01687254 -129.88152091 292.4455377 -136.3203125 299.4609375 C-142.67536418 305.28393834 -149.48532868 306.44361212 -157.84375 306.33203125 C-168.234275 305.2389686 -176.31883032 297.32976548 -182.9453125 289.78515625 C-186.33487648 286.84023089 -189.34573621 286.97043959 -193.703125 287.08203125 C-199.90977746 288.81018685 -203.48696239 293.92380486 -207.65429688 298.58984375 C-213.14693528 304.34555482 -219.42941975 306.13393363 -227.125 306.375 C-234.64920775 306.2989979 -240.20190384 304.38770865 -245.84375 299.35546875 C-252.17686464 292.47907222 -253.53977057 286.27356077 -253.27734375 277.078125 C-252.4124806 267.47936212 -245.6057126 260.20669942 -238.5625 254.1875 C-235.38973292 251.02309127 -234.39201636 248.91668718 -234.1900177 244.43157959 C-234.46788724 236.41529694 -238.95519516 232.28469582 -244.3972168 226.90722656 C-245.40990391 225.8634951 -246.42008882 224.81733096 -247.42796326 223.76895142 C-250.16104381 220.94310636 -252.93122893 218.1567037 -255.7129209 215.37878895 C-258.04108507 213.04812257 -260.35184786 210.70055275 -262.66341621 208.35344481 C-268.12556224 202.80929982 -273.62003097 197.29868203 -279.13452148 191.80664062 C-284.79896039 186.1638869 -290.39973966 180.46310238 -295.97329968 174.73069024 C-300.77992778 169.79214603 -305.62684938 164.89570037 -310.50664836 160.02944922 C-313.41229965 157.13072374 -316.30019094 154.21878183 -319.14890099 151.26398468 C-332.19846536 136.71822185 -332.19846536 136.71822185 -349.82188892 130.56783676 C-353.19470411 130.74254382 -356.45181268 131.22636592 -359.77625465 131.80310822 C-370.58654688 132.76025816 -382.51160764 124.70796926 -390.625 118.25 C-407.80092383 102.64283736 -417.81179884 78.3326948 -418.99609375 55.453125 C-419.00840335 44.57143447 -415.93186114 36.40747741 -410.3125 27.25 C-402.02424965 19.18575642 -391.78217759 16.27884024 -380.40234375 15.87109375 C-360.25264899 16.58225945 -340.74489249 24.55823181 -325 37 C-324.22140625 37.60328125 -323.4428125 38.2065625 -322.640625 38.828125 C-312.34428191 47.32779077 -305.50912379 59.86601322 -303 73 C-303.24774551 74.9813261 -303.24774551 74.9813261 -303.70269775 77.09709167 C-304.78928276 84.19870797 -304.98265207 90.62684087 -301.24516296 96.985569 C-295.54349531 104.48543564 -288.75980738 111.0076779 -281.990695 117.53375649 C-279.02300056 120.41393132 -276.11110061 123.34962647 -273.190979 126.27787781 C-268.28637223 131.17952788 -263.34259663 136.03857797 -258.37109375 140.87231445 C-252.63624526 146.44894385 -246.96175598 152.08167832 -241.31706023 157.74944717 C-235.86312606 163.22416755 -230.37566806 168.66393665 -224.86981964 174.08641624 C-222.53641419 176.38485102 -220.21393792 178.69354628 -217.8995285 181.01110268 C-215.17214634 183.73810557 -212.41620294 186.43267192 -209.63584518 189.10560799 C-208.62443814 190.08693213 -207.62277556 191.07842304 -206.63225937 192.08082962 C-201.90645001 196.85090623 -197.89072394 200.55867185 -191.01246643 201.20199585 C-183.26684181 200.50821619 -178.86217019 195.50522084 -173.70776367 190.1652832 C-172.64286379 189.10683 -171.57536914 188.05098198 -170.50550842 186.99754333 C-167.62305197 184.14403203 -164.779272 181.25466916 -161.9419992 178.35631585 C-158.96384643 175.3252755 -155.9539132 172.32609513 -152.94807434 169.32255554 C-147.91041696 164.2792901 -142.8964784 159.21339379 -137.8972168 154.13208008 C-132.11506818 148.25538442 -126.30195689 142.41083905 -120.47015971 136.58343631 C-114.25825586 130.37558141 -108.06940671 124.14513007 -101.88715959 117.90775657 C-100.10413781 116.11194076 -98.31688277 114.32043202 -96.52864647 112.52980995 C-93.72429453 109.71944019 -90.93570983 106.89430372 -88.15872765 104.0568943 C-87.13633267 103.01694822 -86.10877996 101.98204472 -85.07584 100.95257187 C-83.6696598 99.54932797 -82.28375922 98.12584817 -80.89909363 96.70137024 C-79.72644597 95.51363998 -79.72644597 95.51363998 -78.53010845 94.30191517 C-76.71482007 92.0939063 -76.71482007 92.0939063 -77.24361134 89.38316631 C-77.49321959 88.59672143 -77.74282785 87.81027655 -78 87 C-78.62454621 78.29238458 -78.61730873 71.26676809 -72.82177734 64.43069458 C-65.84636554 56.8971702 -58.70456039 49.55664458 -51.4375 42.3046875 C-50.27199013 41.13850171 -49.10662853 39.97216772 -47.94140625 38.80569458 C-45.52619253 36.38902266 -43.10922009 33.97412819 -40.69091797 31.56054688 C-37.5929607 28.46834388 -34.49959368 25.37159346 -31.40748596 22.2735424 C-29.01413224 19.876581 -26.61840949 17.48199887 -24.22195435 15.08813858 C-23.07934215 13.94619211 -21.93746858 12.80350608 -20.7963562 11.66006088 C-19.210393 10.07156154 -17.62126647 8.48629626 -16.03125 6.90185547 C-15.12955078 6.00095184 -14.22785156 5.10004822 -13.29882812 4.17184448 C-9.10483929 0.20952498 -5.70011674 -0.96534235 0 0 Z M-397 40 C-402.08045713 47.30315712 -400.77317421 57.33664106 -399.37890625 65.74609375 C-395.32675745 82.76511871 -386.64333356 99.93176956 -371.59765625 109.62890625 C-363.10246067 114.11283655 -353.51954645 115.49833626 -344.14453125 113.34375 C-335.08757055 110.44552258 -328.6618389 105.22817085 -323.96484375 96.95703125 C-319.62206586 88.14840079 -319.92776746 78.50682504 -323.01953125 69.34765625 C-324.59321852 65.57958434 -326.61404715 62.30307586 -329 59 C-330.0828125 57.4840625 -330.0828125 57.4840625 -331.1875 55.9375 C-341.96232738 43.63291318 -361.24560365 35.89571191 -377.22265625 34.5859375 C-384.62736988 34.21088581 -391.61526155 34.22957781 -397 40 Z M-65 106 C-98.33 139.33 -131.66 172.66 -166 207 C-164.5 211 -164.5 211 -162 212 C-159.47154472 213.26422764 -159.23577236 214.52845528 -158 217 C-156.68 217.66 -155.36 218.32 -154 219 C-120.67 185.67 -87.34 152.34 -53 118 C-58.66669881 110.99537082 -58.66669881 110.99537082 -65 106 Z M-313 112 C-314.44025272 113.45913617 -314.44025272 113.45913617 -315.875 115.3125 C-318.05439745 117.95128024 -320.11145136 120.11133358 -323 122 C-321.55802042 125.30027875 -319.77180823 127.47555514 -317.22885132 130.01165771 C-316.44358566 130.7996727 -315.65832001 131.58768768 -314.84925842 132.39958191 C-313.98683029 133.25481949 -313.12440216 134.11005707 -312.23583984 134.99121094 C-310.87477867 136.35271019 -310.87477867 136.35271019 -309.48622131 137.74171448 C-307.00120797 140.22730138 -304.51007876 142.70667578 -302.01780653 145.18498135 C-299.41304986 147.77723116 -296.81396002 150.37515004 -294.21426392 152.97247314 C-289.29196785 157.88855432 -284.36459597 162.79951523 -279.43538058 167.7086575 C-273.82327399 173.2984054 -268.21684885 178.89383688 -262.61089396 184.48975325 C-251.08023972 195.99950528 -239.54247086 207.50209796 -228 219 C-224.87802522 217.6910428 -224.87802522 217.6910428 -223 215 C-221.73577236 212.47154472 -220.47154472 212.23577236 -218 211 C-216.86649466 208.98330173 -216.86649466 208.98330173 -216 207 C-228.34585604 194.60748044 -240.69738822 182.2206507 -253.05576134 169.84061432 C-258.79347582 164.0925751 -264.52929744 158.34267034 -270.26074219 152.58837891 C-275.25466 147.57456379 -280.25205083 142.56424146 -285.25369227 137.55813074 C-287.90335674 134.90585266 -290.55121583 132.25182576 -293.19492722 129.59361267 C-296.14196072 126.63054421 -299.09671865 123.67529931 -302.05224609 120.72070312 C-302.9333757 119.83238297 -303.81450531 118.94406281 -304.72233582 118.02882385 C-305.52442978 117.22947922 -306.32652374 116.43013458 -307.15292358 115.60656738 C-307.85164267 114.90600471 -308.55036175 114.20544205 -309.27025414 113.48365021 C-310.87320115 111.78298431 -310.87320115 111.78298431 -313 112 Z M-210 227 C-214.65732456 234.27706963 -216.91911169 240.29991534 -216 249 C-213.55249475 257.05267272 -209.32073773 262.75397212 -202 267 C-196.14970478 269.6592251 -189.6899458 270.13267323 -183.53125 268.2421875 C-175.47646049 264.83232661 -170.41833376 260.32033426 -166.75 252.25 C-164.835517 243.95390698 -165.75673457 237.37450268 -170 230 C-173.89120391 224.16319414 -179.16352755 220.57764749 -186 219 C-195.09635072 217.97374505 -203.49226333 220.31149287 -210 227 Z M-228 269 C-233.02739074 273.90449557 -233.02739074 273.90449557 -235.75 280.1875 C-234.71584605 284.06557732 -233.21142855 285.62633542 -230 288 C-227.13240408 289.00173536 -227.13240408 289.00173536 -224 288 C-221.1069991 285.88648759 -218.53755634 283.52467534 -216 281 C-217.3089572 277.87802522 -217.3089572 277.87802522 -220 276 C-222.52845528 274.73577236 -222.76422764 273.47154472 -224 271 C-226.01669827 269.86649466 -226.01669827 269.86649466 -228 269 Z M-158.125 270.875 C-160.22054055 272.77762162 -160.22054055 272.77762162 -160 275 C-160.61875 275.2475 -161.2375 275.495 -161.875 275.75 C-164.37480203 277.22047178 -164.83316022 278.41403076 -166 281 C-161.09550443 286.02739074 -161.09550443 286.02739074 -154.8125 288.75 C-150.93442268 287.71584605 -149.37366458 286.21142855 -147 283 C-145.99826464 280.13240408 -145.99826464 280.13240408 -147 277 C-149.05951608 274.04944976 -151.31191067 271.39617012 -154 269 C-156.22237838 268.77945945 -156.22237838 268.77945945 -158.125 270.875 Z " fill="#000000" transform="translate(447,12)"/>
<path d="M0 0 C3.62669848 0.7338067 5.0046115 2.40144849 7.0078125 5.40625 C7.6405853 11.96599471 6.15884733 16.22343671 3.3828125 22.09375 C-1.17591651 32.24385393 -4.19078103 42.657305 -6.9921875 53.40625 C-5.89519531 53.51582031 -4.79820313 53.62539062 -3.66796875 53.73828125 C-2.21347234 53.89780666 -0.75904887 54.05799813 0.6953125 54.21875 C1.41654297 54.28900391 2.13777344 54.35925781 2.88085938 54.43164062 C7.25733333 54.93123811 10.416998 55.65484668 14.0078125 58.40625 C16.34690557 61.9148896 16.42072307 63.27714433 16.0078125 67.40625 C13.74310662 72.03860294 13.74310662 72.03860294 11.0078125 73.40625 C3.43337583 74.05505633 -3.43897332 72.66511903 -10.9921875 71.40625 C-10.9921875 86.58625 -10.9921875 101.76625 -10.9921875 117.40625 C-5.0521875 116.41625 -5.0521875 116.41625 1.0078125 115.40625 C10.15542165 114.78254938 10.15542165 114.78254938 13.5703125 117.28125 C15.99972373 120.87255356 16.43600328 123.03870403 16.0078125 127.40625 C13.88990846 130.85958122 12.59257912 132.20203472 8.73046875 133.55078125 C7.52261719 133.77121094 6.31476563 133.99164063 5.0703125 134.21875 C3.86503906 134.45207031 2.65976563 134.68539062 1.41796875 134.92578125 C-1.45577505 135.33067299 -4.09950526 135.51054025 -6.9921875 135.40625 C-3.55056918 148.61167604 0.60210158 161.11272208 6.25512695 173.54125977 C7.03500499 175.47362704 7.54949215 177.37574174 8.0078125 179.40625 C8.72066406 179.00792969 9.43351562 178.60960937 10.16796875 178.19921875 C24.25598768 170.40625 24.25598768 170.40625 29.1953125 170.40625 C32.87867256 171.71588913 34.08824488 173.0100919 36.0078125 176.40625 C36.66556077 180.49890591 36.65407158 182.48302275 34.2578125 185.90625 C29.76350746 189.82402611 24.19785834 192.53392798 19.0078125 195.40625 C22.95317126 203.84190658 28.90086959 210.50034726 35.0078125 217.40625 C36.26464844 218.84871094 36.26464844 218.84871094 37.546875 220.3203125 C41.16040048 224.41725276 44.66395063 228.06889271 49.0078125 231.40625 C49.24242187 230.86484375 49.47703125 230.3234375 49.71875 229.765625 C52.66404533 224.37484203 57.4258864 217.8167494 63.26953125 215.515625 C66.88832417 215.32262271 69.04631257 216.43191671 72.0078125 218.40625 C74.48209113 222.11766795 74.84913087 225.10441455 74.0078125 229.40625 C72.51906094 232.08152536 70.60784514 234.19270208 68.5078125 236.40625 C67.98316406 236.99019531 67.45851563 237.57414063 66.91796875 238.17578125 C65.63209909 239.6019276 64.32228468 241.00642248 63.0078125 242.40625 C66.98422593 246.75912861 71.27657144 249.69951805 76.3203125 252.71875 C77.10196777 253.19223877 77.88362305 253.66572754 78.68896484 254.15356445 C86.25187767 258.67074834 94.05619837 262.62544165 102.0078125 266.40625 C102.37132812 265.30925781 102.73484375 264.21226562 103.109375 263.08203125 C103.61619877 261.62725933 104.12406699 260.17285099 104.6328125 258.71875 C104.86871094 257.99751953 105.10460937 257.27628906 105.34765625 256.53320312 C107.23349757 251.23834097 109.2818164 248.51610236 114.0078125 245.40625 C118.01005085 245.33724589 120.1196956 245.77521957 123.3828125 248.09375 C125.4632883 251.0544271 125.77912054 252.77628489 126.0078125 256.40625 C125.29159596 259.46922626 124.20506039 262.35126638 123.0703125 265.28125 C122.63428711 266.456875 122.63428711 266.456875 122.18945312 267.65625 C121.47479254 269.57763255 120.74300125 271.49262826 120.0078125 273.40625 C135.18292952 277.17995635 150.51809852 279.34713436 166.0078125 281.40625 C165.99733887 280.85163086 165.98686523 280.29701172 165.97607422 279.72558594 C165.93439246 277.20252041 165.90844812 274.67952747 165.8828125 272.15625 C165.86605469 271.28355469 165.84929687 270.41085937 165.83203125 269.51171875 C165.82558594 268.66738281 165.81914062 267.82304687 165.8125 266.953125 C165.79678955 265.79055176 165.79678955 265.79055176 165.78076172 264.60449219 C166.04173477 262.07782409 166.64335486 260.54335234 168.0078125 258.40625 C171.67562922 255.96103885 174.74234483 255.68387241 179.0078125 256.40625 C181.43900873 258.27640094 182.64850423 259.68763345 184.0078125 262.40625 C184.09123409 263.85473582 184.11514111 265.30695869 184.10546875 266.7578125 C184.10224609 267.60859375 184.09902344 268.459375 184.09570312 269.3359375 C184.08732422 270.22539062 184.07894531 271.11484375 184.0703125 272.03125 C184.06580078 272.9284375 184.06128906 273.825625 184.05664062 274.75 C184.04483841 276.96881648 184.02837405 279.18750018 184.0078125 281.40625 C199.49752648 279.34713436 214.83269548 277.17995635 230.0078125 273.40625 C229.56308594 272.24867188 229.11835938 271.09109375 228.66015625 269.8984375 C228.08780229 268.35964981 227.51622869 266.82057171 226.9453125 265.28125 C226.65076172 264.52070313 226.35621094 263.76015625 226.05273438 262.9765625 C224.03140883 257.45953277 223.53306605 253.61599228 226.0703125 248.09375 C228.97669518 245.56238444 232.20538029 245.18729997 236.0078125 245.40625 C239.22787463 246.58417714 240.59442998 247.77059202 242.0703125 250.84375 C243.60718483 254.23266721 244.67800343 257.59521568 245.62890625 261.19140625 C245.88986084 262.17117432 246.15081543 263.15094238 246.41967773 264.16040039 C246.71080444 265.27209595 246.71080444 265.27209595 247.0078125 266.40625 C268.66634553 256.9759464 268.66634553 256.9759464 287.0078125 242.40625 C286.38132812 241.71917969 285.75484375 241.03210938 285.109375 240.32421875 C284.29210937 239.42316406 283.47484375 238.52210938 282.6328125 237.59375 C281.82070313 236.70042969 281.00859375 235.80710937 280.171875 234.88671875 C276.77556757 230.99383929 275.52282327 228.66883752 275.70703125 223.4140625 C276.22357336 219.96597624 277.276552 218.53796551 280.0078125 216.40625 C283.23687571 215.4610036 285.77372466 215.4753859 289.0078125 216.40625 C292.15256379 218.69181031 294.54321793 221.41658963 297.0078125 224.40625 C297.53890625 225.02242187 298.07 225.63859375 298.6171875 226.2734375 C299.77254993 227.63001473 300.89466901 229.01482063 302.0078125 230.40625 C310.98363283 223.18656843 318.26415876 214.64365111 325.0703125 205.40625 C325.54758789 204.75922119 326.02486328 204.11219238 326.51660156 203.44555664 C328.43842564 200.78745386 329.96426601 198.53688948 331.0078125 195.40625 C329.54408203 194.60960937 329.54408203 194.60960937 328.05078125 193.796875 C326.76536689 193.08379842 325.48022482 192.37023083 324.1953125 191.65625 C323.55271484 191.30820312 322.91011719 190.96015625 322.24804688 190.6015625 C318.73106049 188.63350794 315.98387279 186.97890973 314.0078125 183.40625 C313.49107945 179.34620462 313.60671509 177.14426923 315.5703125 173.53125 C318.95124467 170.58377067 320.49360604 170.19128779 325.0078125 170.40625 C328.86337797 172.10426793 332.40543534 174.23184217 336.0078125 176.40625 C337.99108344 177.44727727 339.99354941 178.42633822 342.0078125 179.40625 C342.25917969 178.60703125 342.51054687 177.8078125 342.76953125 176.984375 C343.98103591 173.48362336 345.35349304 170.09710857 346.77539062 166.67871094 C351.02183691 156.42771023 354.30605148 146.16133714 357.0078125 135.40625 C356.37875 135.35726562 355.7496875 135.30828125 355.1015625 135.2578125 C348.64733311 134.69403945 342.51841587 134.02652848 336.5703125 131.28125 C334.12167179 128.34288114 333.80571157 125.10902783 334.0078125 121.40625 C335.34732581 118.40829165 336.06341 116.87845125 339.0078125 115.40625 C346.18525619 114.80227724 353.00586925 115.91534193 360.0078125 117.40625 C360.83501171 111.65878972 361.14337736 106.11425583 361.10546875 100.3125 C361.1040538 99.48036987 361.10263885 98.64823975 361.10118103 97.79089355 C361.09563417 95.1626407 361.08309195 92.53447662 361.0703125 89.90625 C361.06529062 88.11198041 361.06072892 86.31770946 361.05664062 84.5234375 C361.04568222 80.15100805 361.02845498 75.77864402 361.0078125 71.40625 C360.20537109 71.54627441 359.40292969 71.68629883 358.57617188 71.83056641 C357.51205078 72.01280762 356.44792969 72.19504883 355.3515625 72.3828125 C353.77665039 72.65472412 353.77665039 72.65472412 352.16992188 72.93212891 C340.70847592 74.65063787 340.70847592 74.65063787 336.4453125 71.53125 C334.02101817 67.94751055 333.49453799 65.76908334 334.0078125 61.40625 C336.97744537 57.32300481 339.81482617 55.74280685 344.75268555 54.73730469 C347.25690429 54.3696831 349.75786077 54.10071276 352.27734375 53.859375 C353.16655518 53.77333008 354.0557666 53.68728516 354.97192383 53.59863281 C355.64376709 53.53514648 356.31561035 53.47166016 357.0078125 53.40625 C353.98724892 41.81640324 350.68077499 30.65373194 345.54882812 19.80151367 C343.23152205 14.72252533 342.46792276 11.00310697 343.0078125 5.40625 C345.00133703 2.41596321 346.41036745 0.82815585 349.9453125 -0.10546875 C353.7453125 -0.42933239 353.7453125 -0.42933239 356.0078125 0.40625 C360.35058086 4.74901836 362.65428987 9.3871838 364.9453125 15.03125 C365.45626465 16.27588013 365.45626465 16.27588013 365.97753906 17.5456543 C372.45647119 33.70503398 376.44789142 50.20455355 379.0078125 67.40625 C379.1116626 68.08123535 379.2155127 68.7562207 379.32250977 69.45166016 C382.27787569 91.6421755 380.86625885 115.66322735 376.0078125 137.40625 C375.71898193 138.70151611 375.71898193 138.70151611 375.42431641 140.02294922 C367.55838265 174.14809042 351.8788128 205.35744829 328.078125 231.1484375 C326.22352384 233.17100254 324.45746089 235.24108984 322.6953125 237.34375 C290.8969562 273.57064451 240.4016429 295.33017665 193.0078125 299.40625 C187.11561765 299.74441652 181.22030285 299.74669084 175.3203125 299.71875 C174.53610931 299.71725952 173.75190613 299.71576904 172.94393921 299.7142334 C160.42215876 299.67160065 148.29925324 298.95427654 136.0078125 296.40625 C134.91146484 296.1894458 134.91146484 296.1894458 133.79296875 295.96826172 C98.21224688 288.80930632 60.73297676 271.62042748 35.51171875 244.9453125 C33.92825842 243.32483621 32.25751151 241.90696414 30.5078125 240.46875 C26.56129262 237.13477201 23.32712529 233.35172119 20.0078125 229.40625 C18.91533203 228.18035156 18.91533203 228.18035156 17.80078125 226.9296875 C-10.67690601 194.26545818 -29.91299315 148.12909595 -30.1953125 104.48828125 C-30.20232681 103.7572821 -30.20934113 103.02628296 -30.21656799 102.27313232 C-30.23399373 99.9216082 -30.24042234 97.57033637 -30.2421875 95.21875 C-30.24286224 94.413237 -30.24353699 93.607724 -30.24423218 92.77780151 C-30.22736144 80.08990456 -29.59761753 67.8589346 -26.9921875 55.40625 C-26.82058105 54.55111816 -26.64897461 53.69598633 -26.47216797 52.81494141 C-15.5251597 -0.68746095 -15.5251597 -0.68746095 0 0 Z " fill="#000000" transform="translate(80.9921875,161.59375)"/>
<path d="M0 0 C4.63235294 2.26470588 4.63235294 2.26470588 6 5 C6.7133802 12.21486791 4.58525846 16.94059026 1.5 23.375 C-12.26620833 53.57968063 -18.45975032 85.56494042 -18.3125 118.625 C-18.31034485 119.50084747 -18.3081897 120.37669495 -18.30596924 121.27908325 C-18.08689181 176.92664908 1.54604118 230.77248601 38 273 C38.66902344 273.77988281 39.33804688 274.55976563 40.02734375 275.36328125 C50.46494976 287.23921658 61.56457662 298.34253797 74.296875 307.74121094 C75.96034931 308.97069396 77.60527552 310.22216212 79.25 311.4765625 C119.14861184 341.41981471 169.03737348 356.53336451 218.625 356.3125 C219.50084747 356.31034485 220.37669495 356.3081897 221.27908325 356.30596924 C235.04066295 356.25179164 248.46965871 355.71442791 262 353 C262.9782373 352.80664062 263.95647461 352.61328125 264.96435547 352.4140625 C307.73655756 343.66658358 349.00594479 324.10391998 380.36987305 293.35424805 C384.728783 289.09040567 384.728783 289.09040567 388 288 C388.69326083 286.68029866 389.35691064 285.34486367 390 284 C391.10322202 282.83318373 392.2551132 281.7115176 393.4375 280.625 C399.27089641 274.92873588 404.09667323 268.49180216 409 262 C409.42039551 261.45102051 409.84079102 260.90204102 410.27392578 260.33642578 C440.94013587 220.10148162 456.53658457 169.68558023 456.3125 119.375 C456.31034485 118.49915253 456.3081897 117.62330505 456.30596924 116.72091675 C456.25179164 102.95933705 455.71442791 89.53034129 453 76 C452.80664062 75.0217627 452.61328125 74.04352539 452.4140625 73.03564453 C448.57019984 54.24046112 442.86341399 35.70763577 434.4375 18.4375 C432.09582517 13.5845583 431.02589281 10.35758954 432 5 C433.87015094 2.56880377 435.28138345 1.35930827 438 0 C441.49652281 -0.38850253 443.3989837 -0.366591 446.43359375 1.484375 C449.82086633 4.80462392 451.3864676 8.24466303 453.25 12.5625 C453.6305957 13.4302002 454.01119141 14.29790039 454.40332031 15.19189453 C462.32746061 33.75414442 468.36939074 53.14612777 472 73 C472.16226074 73.84804199 472.32452148 74.69608398 472.49169922 75.56982422 C477.64123643 103.67705054 477.47201273 135.96612345 472 164 C471.83902832 164.89702637 471.67805664 165.79405273 471.51220703 166.71826172 C460.68962011 226.52838904 426.63185543 284.04245829 378 321 C377.45972168 321.41668945 376.91944336 321.83337891 376.36279297 322.26269531 C366.3677884 329.9459873 355.90790964 336.68842968 345 343 C344.32275879 343.39429199 343.64551758 343.78858398 342.94775391 344.19482422 C320.0291244 357.37711173 294.45427437 365.98260918 268.625 371.3125 C267.91432373 371.45993652 267.20364746 371.60737305 266.47143555 371.75927734 C250.82891634 374.74463787 235.19330394 375.3748098 219.3125 375.3125 C218.34510895 375.31067719 217.3777179 375.30885437 216.38101196 375.30697632 C202.04809023 375.26154826 188.10226083 374.75266072 174 372 C173.10297363 371.83902832 172.20594727 371.67805664 171.28173828 371.51220703 C111.47161096 360.68962011 53.95754171 326.63185543 17 278 C16.58331055 277.45972168 16.16662109 276.91944336 15.73730469 276.36279297 C8.0540127 266.3677884 1.31157032 255.90790964 -5 245 C-5.39429199 244.32275879 -5.78858398 243.64551758 -6.19482422 242.94775391 C-21.10276055 217.02892388 -30.66189431 187.53640903 -35 158 C-35.17732666 156.794646 -35.35465332 155.58929199 -35.53735352 154.34741211 C-37.13264801 142.71138483 -37.35953114 131.16925476 -37.3125 119.4375 C-37.31034485 118.46855804 -37.3081897 117.49961609 -37.30596924 116.50131226 C-37.17694208 80.31292371 -29.85116295 45.98602424 -15.3125 12.75 C-14.95631592 11.92201904 -14.60013184 11.09403809 -14.2331543 10.2409668 C-11.23385155 3.66272233 -7.94470124 -1.15860226 0 0 Z " fill="#000000" transform="translate(37,137)"/>
<path d="M0 0 C0.86351074 0.19255371 1.72702148 0.38510742 2.61669922 0.58349609 C43.22608528 9.94406515 43.22608528 9.94406515 51 20 C51.63025284 24.88445953 51.74637221 26.88044169 49 31 C45.89472575 33.07018283 43.93477938 33.66217206 40.203125 33.44140625 C36.18670035 32.63669706 32.61764787 30.87581741 29 29 C28.72736328 30.08667969 28.72736328 30.08667969 28.44921875 31.1953125 C24.67543064 45.70988214 24.67543064 45.70988214 20 49 C16.78328314 49.90907216 14.58843537 50.12316089 11.3125 49.4375 C7.86801609 47.29633433 7.08949455 45.94941775 6 42 C6.96000549 35.02526621 9.49999736 28.53955492 12 22 C-3.22057803 18.51465448 -18.54010757 16.15679109 -34 14 C-33.94779297 15.97033203 -33.94779297 15.97033203 -33.89453125 17.98046875 C-33.86638534 19.71613301 -33.83908604 21.45181115 -33.8125 23.1875 C-33.78736328 24.05181641 -33.76222656 24.91613281 -33.73632812 25.80664062 C-33.6802165 30.68835222 -33.74509817 34.067322 -37 38 C-40.19233485 39.59616743 -43.53461497 39.51466114 -47 39 C-49.43119623 37.12984906 -50.64069173 35.71861655 -52 33 C-52.08342159 31.55151418 -52.10732861 30.09929131 -52.09765625 28.6484375 C-52.09282227 27.37226562 -52.09282227 27.37226562 -52.08789062 26.0703125 C-52.07532227 24.73613281 -52.07532227 24.73613281 -52.0625 23.375 C-52.05798828 22.4778125 -52.05347656 21.580625 -52.04882812 20.65625 C-52.03702591 18.43743352 -52.02056155 16.21874982 -52 14 C-67.45989243 16.15679109 -82.77942197 18.51465448 -98 22 C-97.55527344 23.15757813 -97.11054688 24.31515625 -96.65234375 25.5078125 C-96.07998979 27.04660019 -95.50841619 28.58567829 -94.9375 30.125 C-94.64294922 30.88554688 -94.34839844 31.64609375 -94.04492188 32.4296875 C-92.02359633 37.94671723 -91.52525355 41.79025772 -94.0625 47.3125 C-96.96888268 49.84386556 -100.19756779 50.21895003 -104 50 C-106.54557579 49.11092022 -107.69816557 48.47155278 -109.16015625 46.1875 C-111.48457996 40.55253343 -113.38037127 34.8772891 -115 29 C-115.556875 29.28875 -116.11375 29.5775 -116.6875 29.875 C-122.08084516 32.49878954 -125.99960808 33.90005879 -132 33 C-134.99028679 31.00647547 -136.57809415 29.59744505 -137.51171875 26.0625 C-137.83558239 22.2625 -137.83558239 22.2625 -137 20 C-132.67258984 15.67933035 -128.05489511 13.35407484 -122.4375 11.0625 C-121.61032471 10.72186523 -120.78314941 10.38123047 -119.9309082 10.03027344 C-82.45046162 -4.97456157 -39.42640439 -8.80977192 0 0 Z " fill="#000000" transform="translate(299,55)"/>
<path d="M0 0 C0.9005864 -0.00701431 1.80117279 -0.01402863 2.72904968 -0.02125549 C5.61759506 -0.03865309 8.50593541 -0.04510727 11.39453125 -0.046875 C12.38157043 -0.04754974 13.36860962 -0.04822449 14.38555908 -0.04891968 C28.85671684 -0.03318728 42.97697736 0.33212486 57.20703125 3.203125 C58.1088916 3.38004883 59.01075195 3.55697266 59.93994141 3.73925781 C80.15495725 7.79557186 99.4267288 13.6920128 118.20703125 22.203125 C119.29757812 22.69167969 120.388125 23.18023438 121.51171875 23.68359375 C125.79160952 25.69948433 128.65238366 27.08424704 131.20703125 31.203125 C131.61438233 35.11369532 131.43753798 37.91606245 129.20703125 41.203125 C125.42631418 43.72360305 122.57828628 43.86722826 118.20703125 43.203125 C114.47163271 41.93438889 110.95637179 40.26648122 107.39453125 38.578125 C90.2208578 30.80201264 72.70634191 25.77670753 54.20703125 22.203125 C52.91829102 21.95320801 52.91829102 21.95320801 51.60351562 21.69824219 C25.50333727 16.90493947 -3.76762521 17.09010881 -29.79296875 22.203125 C-30.83308105 22.40711914 -31.87319336 22.61111328 -32.94482422 22.82128906 C-52.0055882 26.68119912 -70.25179313 32.0605314 -87.70898438 40.71435547 C-92.65838607 43.0710465 -96.30099894 43.71633808 -101.79296875 43.203125 C-104.22416498 41.33297406 -105.43366048 39.92174155 -106.79296875 37.203125 C-107.18453506 33.67902824 -107.15858515 31.79583819 -105.27734375 28.74609375 C-102.0903169 25.48390117 -98.89845526 24.05998525 -94.73046875 22.328125 C-93.93535889 21.98861816 -93.14024902 21.64911133 -92.32104492 21.29931641 C-89.82020825 20.24501567 -87.30956031 19.21919516 -84.79296875 18.203125 C-84.02436523 17.89052734 -83.25576172 17.57792969 -82.46386719 17.25585938 C-56.55351867 6.85608906 -27.99822264 0.14689413 0 0 Z " fill="#000000" transform="translate(243.79296875,-0.203125)"/>
</svg>
